<?xml version="1.0" encoding="UTF-8"?>
<svg width="1023.748px" height="1024px" viewBox="0 0 1023.748 1024" version="1.1" xmlns="http://www.w3.org/2000/svg" xmlns:xlink="http://www.w3.org/1999/xlink">
    <title>favicon_icon</title>
    <g id="Site" stroke="none" stroke-width="1" fill="none" fill-rule="evenodd">
        <g id="AppIcon" transform="translate(-462.8861, -0)">
            <rect id="Background" fill="#FFFFFF" x="0" y="3.41060513e-13" width="1950" height="1024.002"></rect>
            <path d="M462.886059,3.41060513e-13 L1486.63406,1024 M1486.63406,3.41060513e-13 L462.886059,1024 M530.869324,3.41060513e-13 L530.869324,1024 M782.807309,3.41060513e-13 L782.807309,1024 M974.760059,3.41060513e-13 L974.760059,1024 M1165.71306,3.41060513e-13 L1165.71306,1024 M1418.65079,3.41060513e-13 L1418.65079,1024 M462.886059,956 L1486.63406,956 M462.886059,704 L1486.63406,704 M462.886059,512 L1486.63406,512 M462.886059,320 L1486.63406,320 M462.886059,68 L1486.63406,68 M974.760059,956 C1219.91414,956 1418.65079,757.214429 1418.65079,512 C1418.65079,266.785571 1219.91414,68 974.760059,68 C729.605976,68 530.869324,266.785571 530.869324,512 C530.869324,757.214429 729.605976,956 974.760059,956 Z M974.760059,782 C1123.84024,782 1244.69361,661.116882 1244.69361,512 C1244.69361,362.883118 1123.84024,242 974.760059,242 C825.679873,242 704.826504,362.883118 704.826504,512 C704.826504,661.116882 825.679873,782 974.760059,782 Z M974.760059,703 C1080.22049,703 1165.71306,617.486387 1165.71306,512 C1165.71306,406.513613 1080.22049,321 974.760059,321 C869.299631,321 783.807063,406.513613 783.807063,512 C783.807063,617.486387 869.299631,703 974.760059,703 Z" id="Grid" stroke="#5C5C5C" stroke-linecap="square"></path>
        </g>
    </g>
</svg>